HIERARCHY
ROOT Hips
{
  OFFSET 5.80788e-005 67.184 3.4734
  CHANNELS 6 Xposition Yposition Zposition Zrotation Xrotation Yrotation
  JOINT Chest
  {
    OFFSET 0 8.7983 -4.7612
    CHANNELS 3 Zrotation Xrotation Yrotation
    JOINT Chest2
    {
      OFFSET 0 8.0291 0.4195
      CHANNELS 3 Zrotation Xrotation Yrotation
      JOINT Chest3
      {
        OFFSET 0 9.9351 -2.2114
        CHANNELS 3 Zrotation Xrotation Yrotation
        JOINT Neck
        {
          OFFSET 0 22.3885 -0.4656
          CHANNELS 3 Zrotation Xrotation Yrotation
          JOINT Head
          {
            OFFSET -0.0001 12.643 3.4389
            CHANNELS 3 Zrotation Xrotation Yrotation
            End Site
            {
              OFFSET 0.0001 17.6655 0.5274
            }
          }
        }
        JOINT LeftCollar
        {
          OFFSET 2.2603 21.606 7.4023
          CHANNELS 3 Zrotation Xrotation Yrotation
          JOINT LeftShoulder
          {
            OFFSET 13.5163 -1.1332 -5.0146
            CHANNELS 3 Zrotation Xrotation Yrotation
            JOINT LeftElbow
            {
              OFFSET -0.0995 -28.05 -0.2431
              CHANNELS 3 Zrotation Xrotation Yrotation
              JOINT LeftWrist
              {
                OFFSET 0.0679 -23.3996 -0.1402
                CHANNELS 3 Zrotation Xrotation Yrotation
                JOINT LeftFinger1
                {
                  OFFSET 0.7932 -9.069 2.5189
                  CHANNELS 3 Zrotation Xrotation Yrotation
                  JOINT LeftFinger11
                  {
                    OFFSET -0.8272 -3.3923 0.5977
                    CHANNELS 3 Zrotation Xrotation Yrotation
                    JOINT LeftFinger12
                    {
                      OFFSET -0.5649 -2.3158 0.4082
                      CHANNELS 3 Zrotation Xrotation Yrotation
                      End Site
                      {
                        OFFSET -0.4919 -1.6479 0.2673
                      }
                    }
                  }
                }
                JOINT LeftFinger2
                {
                  OFFSET 0.9159 -9.2044 0.2193
                  CHANNELS 3 Zrotation Xrotation Yrotation
                  JOINT LeftFinger21
                  {
                    OFFSET 0.0117 -4.1944 -0.0248
                    CHANNELS 3 Zrotation Xrotation Yrotation
                    JOINT LeftFinger22
                    {
                      OFFSET 0.0071 -2.3249 -0.0142
                      CHANNELS 3 Zrotation Xrotation Yrotation
                      End Site
                      {
                        OFFSET -0.1475 -2.0882 0.0028
                      }
                    }
                  }
                }
                JOINT LeftFinger3
                {
                  OFFSET 0.6113 -8.7231 -2.0637
                  CHANNELS 3 Zrotation Xrotation Yrotation
                  JOINT LeftFinger31
                  {
                    OFFSET -0.1927 -3.8059 -0.2383
                    CHANNELS 3 Zrotation Xrotation Yrotation
                    JOINT LeftFinger32
                    {
                      OFFSET -0.1091 -2.1688 -0.1362
                      CHANNELS 3 Zrotation Xrotation Yrotation
                      End Site
                      {
                        OFFSET -0.2358 -1.9176 -0.0906
                      }
                    }
                  }
                }
                JOINT LeftFinger4
                {
                  OFFSET -0.6151 -8.0947 -3.5641
                  CHANNELS 3 Zrotation Xrotation Yrotation
                  JOINT LeftFinger41
                  {
                    OFFSET -0.4882 -2.341 -0.6462
                    CHANNELS 3 Zrotation Xrotation Yrotation
                    JOINT LeftFinger42
                    {
                      OFFSET -0.3575 -1.7167 -0.4742
                      CHANNELS 3 Zrotation Xrotation Yrotation
                      End Site
                      {
                        OFFSET -0.4187 -1.5237 -0.3496
                      }
                    }
                  }
                }
                JOINT LeftFinger0
                {
                  OFFSET -1.42 -1.8761 1.4223
                  CHANNELS 3 Zrotation Xrotation Yrotation
                  JOINT LeftFinger01
                  {
                    OFFSET -1.1471 -3.4929 2.6334
                    CHANNELS 3 Zrotation Xrotation Yrotation
                    JOINT LeftFinger02
                    {
                      OFFSET -0.823 -2.3 1.6571
                      CHANNELS 3 Zrotation Xrotation Yrotation
                      End Site
                      {
                        OFFSET -0.5822 -1.6914 1.1582
                      }
                    }
                  }
                }
              }
            }
          }
        }
        JOINT RightCollar
        {
          OFFSET -2.2603 21.606 7.4023
          CHANNELS 3 Zrotation Xrotation Yrotation
          JOINT RightShoulder
          {
            OFFSET -13.5187 -1.1334 -5.0155
            CHANNELS 3 Zrotation Xrotation Yrotation
            JOINT RightElbow
            {
              OFFSET 0.0994 -28.0499 -0.2431
              CHANNELS 3 Zrotation Xrotation Yrotation
              JOINT RightWrist
              {
                OFFSET -0.0679 -23.3996 -0.1402
                CHANNELS 3 Zrotation Xrotation Yrotation
                JOINT RightFinger1
                {
                  OFFSET -0.7932 -9.0691 2.5189
                  CHANNELS 3 Zrotation Xrotation Yrotation
                  JOINT RightFinger11
                  {
                    OFFSET 0.8272 -3.3923 0.5977
                    CHANNELS 3 Zrotation Xrotation Yrotation
                    JOINT RightFinger12
                    {
                      OFFSET 0.565 -2.3158 0.4082
                      CHANNELS 3 Zrotation Xrotation Yrotation
                      End Site
                      {
                        OFFSET 0.4919 -1.6479 0.2673
                      }
                    }
                  }
                }
                JOINT RightFinger2
                {
                  OFFSET -0.916 -9.2044 0.2193
                  CHANNELS 3 Zrotation Xrotation Yrotation
                  JOINT RightFinger21
                  {
                    OFFSET -0.0117 -4.1944 -0.0248
                    CHANNELS 3 Zrotation Xrotation Yrotation
                    JOINT RightFinger22
                    {
                      OFFSET -0.0071 -2.3249 -0.0142
                      CHANNELS 3 Zrotation Xrotation Yrotation
                      End Site
                      {
                        OFFSET 0.1475 -2.0882 0.0028
                      }
                    }
                  }
                }
                JOINT RightFinger3
                {
                  OFFSET -0.6113 -8.7231 -2.0637
                  CHANNELS 3 Zrotation Xrotation Yrotation
                  JOINT RightFinger31
                  {
                    OFFSET 0.1927 -3.8059 -0.2383
                    CHANNELS 3 Zrotation Xrotation Yrotation
                    JOINT RightFinger32
                    {
                      OFFSET 0.1091 -2.1688 -0.1362
                      CHANNELS 3 Zrotation Xrotation Yrotation
                      End Site
                      {
                        OFFSET 0.2358 -1.9176 -0.0906
                      }
                    }
                  }
                }
                JOINT RightFinger4
                {
                  OFFSET 0.6151 -8.0947 -3.564
                  CHANNELS 3 Zrotation Xrotation Yrotation
                  JOINT RightFinger41
                  {
                    OFFSET 0.4882 -2.341 -0.6462
                    CHANNELS 3 Zrotation Xrotation Yrotation
                    JOINT RightFinger42
                    {
                      OFFSET 0.3574 -1.7166 -0.4742
                      CHANNELS 3 Zrotation Xrotation Yrotation
                      End Site
                      {
                        OFFSET 0.4187 -1.5237 -0.3496
                      }
                    }
                  }
                }
                JOINT RightFinger0
                {
                  OFFSET 1.4199 -1.8761 1.4221
                  CHANNELS 3 Zrotation Xrotation Yrotation
                  JOINT RightFinger01
                  {
                    OFFSET 1.1472 -3.4929 2.6336
                    CHANNELS 3 Zrotation Xrotation Yrotation
                    JOINT RightFinger02
                    {
                      OFFSET 0.8229 -2.3 1.6571
                      CHANNELS 3 Zrotation Xrotation Yrotation
                      End Site
                      {
                        OFFSET 0.5822 -1.6914 1.1582
                      }
                    }
                  }
                }
              }
            }
          }
        }
      }
    }
  }
  JOINT RightHip
  {
    OFFSET -9.412 3.9771 -0.7758
    CHANNELS 3 Zrotation Xrotation Yrotation
    JOINT RightKnee
    {
      OFFSET -0.7531 -40.938 0
      CHANNELS 3 Zrotation Xrotation Yrotation
      JOINT RightAnkle
      {
        OFFSET 0 -40.1986 0
        CHANNELS 3 Zrotation Xrotation Yrotation
        JOINT RightToe
        {
          OFFSET 0 -4.4182 9.239
          CHANNELS 3 Zrotation Xrotation Yrotation
          End Site
          {
            OFFSET 0 0 6.1981
          }
        }
      }
    }
  }
  JOINT LeftHip
  {
    OFFSET 9.4119 3.9773 -0.7758
    CHANNELS 3 Zrotation Xrotation Yrotation
    JOINT LeftKnee
    {
      OFFSET 0.7532 -40.9383 0
      CHANNELS 3 Zrotation Xrotation Yrotation
      JOINT LeftAnkle
      {
        OFFSET 0 -40.1986 0
        CHANNELS 3 Zrotation Xrotation Yrotation
        JOINT LeftToe
        {
          OFFSET 0 -4.4182 9.239
          CHANNELS 3 Zrotation Xrotation Yrotation
          End Site
          {
            OFFSET 0 0 6.1981
          }
        }
      }
    }
  }
}
MOTION
Frames:	6
Frame Time:	0.0333333
0.000415412 2.06219 8.14514 179.997 -89.9981 179.997 -0.0986756 5.47922 -0.148262 -0.184305 10.9587 -0.288991 -0.184305 10.9587 -0.288992 -10.3929 8.2857 0.925153 7.66791 -10.628 7.63485 -9.17726 3.25884 -12.4558 27.0975 -18.0852 16.8045 -29.4301 -58.2076 -11.9948 -12.6545 -1.55928 -22.1718 1.98785e-016 0 3.97569e-016 2.98177e-015 3.18055e-015 -0 -5.36719e-015 0 -0 1.98785e-016 0 3.97569e-016 -0.0128277 0.00232504 8.89601e-005 -5.36719e-015 0 -2.78299e-015 1.98785e-016 0 3.97569e-016 -0.0160704 0.0030015 0.000860209 -4.52554e-007 2.7591e-006 7.22718e-007 1.98785e-016 0 3.97569e-016 -0.0126328 0.00312714 0.00283676 5.96354e-015 -3.18055e-015 -1.98785e-015 1.98785e-016 0 3.97569e-016 2.98177e-015 3.18055e-015 -0 -5.36719e-015 0 -0 9.8337 4.32392 8.07267 -25.6884 -19.4143 -11.965 24.6008 -57.7664 7.22858 11.4985 -2.22641 24.0718 -1.59028e-015 -3.18055e-015 7.95139e-016 3.36389e-006 -8.16391e-007 3.14984e-006 -1.59028e-015 0 -0 -1.59028e-015 -3.18055e-015 7.95139e-016 0.0129672 0.00232659 -8.51847e-005 4.19816e-006 -5.40504e-006 4.84454e-006 -1.59028e-015 -3.18055e-015 7.95139e-016 0.016384 0.00305519 -0.000870622 -1.59028e-015 6.36111e-015 -9.54166e-015 -1.59028e-015 -3.18055e-015 7.95139e-016 0.0146033 0.00367553 -0.00326757 4.37326e-015 9.54166e-015 7.95139e-016 -1.59028e-015 -3.18055e-015 7.95139e-016 3.36389e-006 -8.16391e-007 3.14984e-006 -1.59028e-015 0 -0 5.20513 0.470431 7.46314 -2.56402 13.4983 0.395445 -3.80595 10.762 -10.4056 -8.37251e-009 2.56671e-005 -1.58069e-007 -5.12949 0.717183 -10.5903 1.86278 13.1851 -0.210471 3.53138 10.6142 13.4477 -1.09082e-006 2.01999e-005 -1.25328e-006 
0.000415406 2.06219 8.14514 179.999 -89.9981 179.999 -0.0984519 5.42558 -0.148357 -0.183964 10.8514 -0.289261 -0.183965 10.8514 -0.289262 -10.3251 8.35091 0.925421 7.60713 -10.5014 7.57427 -9.16176 3.45661 -12.3071 26.8906 -18.1321 16.711 -29.4301 -58.2076 -11.9948 -12.5035 -1.02913 -22.1283 5.96354e-016 0 2.78299e-015 -3.91902e-006 2.22408e-006 6.30394e-007 4.37326e-015 6.36111e-015 -4.77083e-015 5.96354e-016 0 2.78299e-015 -0.0128265 0.00233088 8.98178e-005 3.97569e-016 3.18055e-015 -0 5.96354e-016 0 2.78299e-015 -0.0160396 0.00300302 0.000859616 -7.95139e-015 -9.54166e-015 4.37326e-015 5.96354e-016 0 2.78299e-015 -0.0125483 0.00311296 0.00281632 -3.77691e-015 3.18055e-015 2.78299e-015 5.96354e-016 0 2.78299e-015 -3.91902e-006 2.22408e-006 6.30394e-007 4.37326e-015 6.36111e-015 -4.77083e-015 9.70916 4.44922 7.85773 -25.4499 -19.4356 -11.8463 24.9095 -57.8319 7.4991 11.3867 -1.64022 23.9578 -4.95821e-007 2.68282e-007 6.90567e-007 1.19271e-015 -3.18055e-015 -7.95139e-016 6.00134e-007 -4.94621e-006 1.82313e-006 -4.95821e-007 2.68282e-007 6.90567e-007 0.0129444 0.00231368 -8.37872e-005 1.19271e-015 3.18055e-015 7.95139e-016 -4.95821e-007 2.68282e-007 6.90567e-007 0.0163132 0.00302966 -0.000877174 7.81386e-007 1.19105e-007 1.51979e-006 -4.95821e-007 2.68282e-007 6.90567e-007 0.0145906 0.00368617 -0.00326587 4.59699e-006 -3.07351e-006 1.62892e-006 -4.95821e-007 2.68282e-007 6.90567e-007 1.19271e-015 -3.18055e-015 -7.95139e-016 6.00134e-007 -4.94621e-006 1.82313e-006 5.20513 0.470431 7.46314 -2.56402 13.4983 0.395445 -3.80595 10.762 -10.4056 -8.37251e-009 2.56671e-005 -1.58069e-007 -5.12949 0.717183 -10.5903 1.86278 13.1851 -0.210471 3.53138 10.6142 13.4477 -1.09082e-006 2.01999e-005 -1.25328e-006 
0.000415404 2.06219 8.14514 180 -89.9981 180 -0.0982262 5.37195 -0.148455 -0.183619 10.7441 -0.289534 -0.18362 10.7442 -0.289535 -10.2572 8.41618 0.925704 7.54652 -10.3747 7.51383 -9.14678 3.65446 -12.1584 26.6838 -18.1787 16.6174 -29.4301 -58.2076 -11.9948 -12.353 -0.498914 -22.0864 -1.2779e-007 -1.2659e-006 2.92289e-006 9.64419e-006 3.11069e-006 5.73323e-006 -6.45317e-006 -1.01505e-007 -9.59066e-007 -1.2779e-007 -1.2659e-006 2.92289e-006 -0.0127926 0.0023206 9.40153e-005 -4.64326e-007 0 7.15482e-007 -1.2779e-007 -1.2659e-006 2.92289e-006 -0.0160456 0.00299807 0.000866125 -4.72307e-006 1.87016e-006 -8.98458e-007 -1.2779e-007 -1.2659e-006 2.92289e-006 -0.0125837 0.00312417 0.00283563 -8.84543e-006 -3.58673e-006 -4.24131e-006 -1.2779e-007 -1.2659e-006 2.92289e-006 9.64419e-006 3.11069e-006 5.73323e-006 -6.45317e-006 -1.01505e-007 -9.59066e-007 9.58508 4.57507 7.64301 -25.2119 -19.4564 -11.7278 25.2198 -57.8964 7.77061 11.276 -1.05386 23.8449 4.38391e-006 -3.17178e-006 4.52997e-006 -5.00613e-007 2.6946e-007 6.8743e-007 5.00613e-007 -2.6946e-007 -6.8743e-007 4.38391e-006 -3.17178e-006 4.52997e-006 0.0129711 0.00231561 -8.51559e-005 -7.40859e-006 2.22868e-006 -2.9638e-006 4.38391e-006 -3.17178e-006 4.52997e-006 0.0163478 0.00303691 -0.000872394 -6.36111e-015 -3.18055e-015 -1.59028e-015 4.38391e-006 -3.17178e-006 4.52997e-006 0.0145779 0.00367913 -0.00327151 -3.57812e-015 3.18055e-015 3.18055e-015 4.38391e-006 -3.17178e-006 4.52997e-006 -5.00613e-007 2.6946e-007 6.8743e-007 5.00613e-007 -2.6946e-007 -6.8743e-007 5.20513 0.470431 7.46314 -2.56402 13.4983 0.395445 -3.80595 10.762 -10.4056 -8.37251e-009 2.56671e-005 -1.58069e-007 -5.12949 0.717183 -10.5903 1.86278 13.1851 -0.210471 3.53138 10.6142 13.4477 -1.09082e-006 2.01999e-005 -1.25328e-006 
0.000415402 2.06219 8.14514 -180 -89.9981 -180 -0.0979992 5.31834 -0.148554 -0.183272 10.6369 -0.289813 -0.183273 10.637 -0.289813 -10.1894 8.48144 0.92598 7.48604 -10.2479 7.45354 -9.13231 3.85231 -12.0097 26.4769 -18.225 16.5237 -29.4302 -58.2076 -11.9948 -12.2029 0.0313165 -22.0458 8.07286e-007 1.20428e-005 3.66916e-006 1.59028e-015 -6.36111e-015 -3.97569e-016 -8.07287e-007 -1.20428e-005 -3.66917e-006 8.07286e-007 1.20428e-005 3.66916e-006 -0.0128227 0.00232034 8.22932e-005 -3.57812e-015 1.27222e-014 1.19271e-015 8.07286e-007 1.20428e-005 3.66916e-006 -0.0160625 0.00299703 0.000860719 4.37326e-015 9.54166e-015 -0 8.07286e-007 1.20428e-005 3.66916e-006 -0.0125872 0.0031095 0.00282721 -5.56597e-015 -6.36111e-015 4.37326e-015 8.07286e-007 1.20428e-005 3.66916e-006 1.59028e-015 -6.36111e-015 -3.97569e-016 -8.07287e-007 -1.20428e-005 -3.66917e-006 9.46145 4.70133 7.42854 -24.9729 -19.4765 -11.6088 25.5307 -57.9606 8.04365 11.1666 -0.467383 23.7331 -8.52889e-008 4.67165e-006 -2.50095e-006 1.01073e-006 -2.70585e-007 -1.36852e-006 1.01073e-006 -2.70585e-007 -1.36852e-006 -8.52889e-008 4.67165e-006 -2.50095e-006 0.0129313 0.00231742 -9.06931e-005 1.76767e-006 2.73513e-006 1.65675e-007 -8.52889e-008 4.67165e-006 -2.50095e-006 0.0162994 0.00302772 -0.000878012 4.19447e-007 4.67115e-006 -3.18514e-006 -8.52889e-008 4.67165e-006 -2.50095e-006 0.0145709 0.00367709 -0.00326082 5.0543e-007 0 -6.84233e-007 -8.52889e-008 4.67165e-006 -2.50095e-006 1.01073e-006 -2.70585e-007 -1.36852e-006 1.01073e-006 -2.70585e-007 -1.36852e-006 5.20513 0.470431 7.46314 -2.56402 13.4983 0.395445 -3.80595 10.762 -10.4056 -8.37251e-009 2.56671e-005 -1.58069e-007 -5.12949 0.717183 -10.5903 1.86278 13.1851 -0.210471 3.53138 10.6142 13.4477 -1.09082e-006 2.01999e-005 -1.25328e-006 
0.000415398 2.06219 8.14514 -179.998 -89.9981 -179.998 -0.0977709 5.26478 -0.148656 -0.182922 10.5298 -0.290095 -0.182923 10.5298 -0.290096 -10.1215 8.5467 0.926262 7.42571 -10.121 7.3934 -9.11835 4.05024 -11.861 26.27 -18.271 16.4297 -29.4303 -58.2075 -11.9947 -12.0532 0.561557 -22.0066 2.42001e-006 -6.0984e-006 1.37194e-006 -1.80455e-005 1.51383e-006 -2.44871e-006 -4.7592e-007 -6.36111e-015 7.08062e-007 2.42001e-006 -6.0984e-006 1.37194e-006 -0.0128514 0.00232709 7.84062e-005 -9.51913e-007 -6.36111e-015 1.41608e-006 2.42001e-006 -6.0984e-006 1.37194e-006 -0.0160172 0.0029868 0.000853192 3.82166e-007 4.51564e-006 2.44996e-006 2.42001e-006 -6.0984e-006 1.37194e-006 -0.0125845 0.00312204 0.00282105 -4.75966e-007 -2.39323e-007 7.08037e-007 2.42001e-006 -6.0984e-006 1.37194e-006 -1.80455e-005 1.51383e-006 -2.44871e-006 -4.7592e-007 -6.36111e-015 7.08062e-007 9.33828 4.82804 7.21432 -24.7342 -19.4962 -11.4898 25.843 -58.0238 8.3176 11.0595 0.119447 23.6226 -5.10083e-007 1.20998e-006 6.81062e-007 -3.18055e-015 0 4.77083e-015 5.10083e-007 -1.20998e-006 -6.81062e-007 -5.10083e-007 1.20998e-006 6.81062e-007 0.0129603 0.00231884 -8.84112e-005 5.10126e-007 3.18055e-015 -6.81041e-007 -5.10083e-007 1.20998e-006 6.81062e-007 0.0163116 0.00303212 -0.00087735 3.27433e-006 -5.04165e-007 6.98819e-007 -5.10083e-007 1.20998e-006 6.81062e-007 0.0145576 0.0036712 -0.00325464 -3.97569e-016 -9.54166e-015 1.59028e-015 -5.10083e-007 1.20998e-006 6.81062e-007 -3.18055e-015 0 4.77083e-015 5.10083e-007 -1.20998e-006 -6.81062e-007 5.20513 0.470431 7.46314 -2.56402 13.4983 0.395445 -3.80595 10.762 -10.4056 -8.37251e-009 2.56671e-005 -1.58069e-007 -5.12949 0.717183 -10.5903 1.86278 13.1851 -0.210471 3.53138 10.6142 13.4477 -1.09082e-006 2.01999e-005 -1.25328e-006 
0.0004154 2.06219 8.14514 -179.999 -89.9981 -179.999 -0.0975409 5.21124 -0.148761 -0.18257 10.4227 -0.290383 -0.18257 10.4228 -0.290384 -10.0537 8.61201 0.926552 7.36554 -9.99402 7.33342 -9.1049 4.24818 -11.7123 26.0625 -18.3166 16.3355 -29.4302 -58.2076 -11.9948 -11.9039 1.09183 -21.9688 -9.93923e-016 6.36111e-015 -5.96354e-015 2.38542e-015 -6.36111e-015 -0 3.97569e-015 -3.18055e-015 -2.38542e-015 -9.93923e-016 6.36111e-015 -5.96354e-015 -0.0128095 0.00232217 8.51499e-005 -6.16232e-015 -1.27222e-014 -9.93923e-016 -9.93923e-016 6.36111e-015 -5.96354e-015 -0.0160364 0.00300148 0.000857713 6.36111e-015 9.54166e-015 -6.36111e-015 -9.93923e-016 6.36111e-015 -5.96354e-015 -0.0125688 0.00312162 0.00282334 -5.29669e-031 -6.36111e-015 -4.77083e-015 -9.93923e-016 6.36111e-015 -5.96354e-015 2.38542e-015 -6.36111e-015 -0 3.97569e-015 -3.18055e-015 -2.38542e-015 9.21558 4.95523 7.00034 -24.4959 -19.5156 -11.3709 26.1567 -58.086 8.5926 10.9563 0.706809 23.5132 1.54428e-006 1.67665e-006 -2.0335e-006 -9.32403e-006 2.01127e-006 -2.84357e-007 -2.17578e-007 -1.45564e-006 -2.22594e-006 1.54428e-006 1.67665e-006 -2.0335e-006 0.0129651 0.00231483 -8.39451e-005 -6.75066e-008 4.66427e-006 -2.48793e-006 1.54428e-006 1.67665e-006 -2.0335e-006 0.016304 0.00303114 -0.000877789 5.85012e-006 -5.73771e-006 2.86553e-006 1.54428e-006 1.67665e-006 -2.0335e-006 0.0145484 0.00366685 -0.003264 5.14819e-007 -2.72661e-007 -6.77806e-007 1.54428e-006 1.67665e-006 -2.0335e-006 -9.32403e-006 2.01127e-006 -2.84357e-007 -2.17578e-007 -1.45564e-006 -2.22594e-006 5.20513 0.470431 7.46314 -2.56402 13.4983 0.395445 -3.80595 10.762 -10.4056 -8.37251e-009 2.56671e-005 -1.58069e-007 -5.12949 0.717183 -10.5903 1.86278 13.1851 -0.210471 3.53138 10.6142 13.4477 -1.09082e-006 2.01999e-005 -1.25328e-006 
